<?xml version="1.0" standalone="no"?>
<!DOCTYPE svg PUBLIC "-//W3C//DTD SVG 20010904//EN"
 "http://www.w3.org/TR/2001/REC-SVG-20010904/DTD/svg10.dtd">
<svg version="1.0" xmlns="http://www.w3.org/2000/svg"
 width="672.000000pt" height="672.000000pt" viewBox="0 0 672.000000 672.000000"
 preserveAspectRatio="xMidYMid meet">
<metadata>
Created by potrace 1.11, written by Peter Selinger 2001-2013
</metadata>
<g transform="translate(0.000000,672.000000) scale(0.100000,-0.100000)"
fill="#000000" stroke="none">
<path d="M4245 6484 c-429 -47 -917 -310 -1403 -757 l-133 -122 140 -8 139 -9
124 95 c400 307 758 473 1112 517 543 68 965 -240 1116 -814 45 -173 64 -313
63 -476 -1 -313 -90 -769 -233 -1186 -84 -245 -82 -226 -29 -222 l44 3 23 70
c40 124 121 466 147 620 45 273 59 441 59 730 0 372 -26 589 -100 814 -69 211
-152 351 -288 486 -130 129 -267 202 -451 240 -81 17 -256 27 -330 19z"/>
<path d="M1465 5484 c6 -2 89 -28 185 -57 127 -39 175 -58 174 -69 -1 -8 -223
-571 -494 -1251 l-493 -1237 -248 -162 c-136 -89 -247 -163 -246 -163 1 0 393
2 872 5 l869 5 -122 134 c-67 74 -122 139 -122 146 0 6 58 195 129 421 l129
409 39 7 c21 4 162 14 313 23 601 34 714 50 880 123 389 172 588 506 540 907
-14 119 -49 234 -98 328 -44 85 -152 202 -241 261 -61 41 -203 106 -230 106
-6 0 -19 4 -29 10 -9 5 -51 17 -92 26 -62 13 -177 18 -650 24 -607 9 -1082 11
-1065 4z m1315 -554 c132 -27 215 -71 254 -133 25 -41 30 -61 34 -131 5 -95
-12 -167 -61 -259 -64 -121 -160 -175 -409 -231 -104 -23 -360 -67 -365 -62
-1 1 39 130 88 286 85 269 119 384 141 474 17 76 18 76 126 76 57 0 137 -8
192 -20z"/>
<path d="M2523 3302 l98 -98 -330 -979 c-182 -538 -329 -980 -327 -982 1 -2
22 4 46 12 24 9 332 104 685 211 352 108 647 200 656 205 9 4 145 239 304 521
158 282 289 515 291 517 2 2 7 1 11 -3 4 -4 3 -10 -3 -14 -5 -4 -116 -229
-247 -501 l-237 -493 83 -97 c46 -53 204 -242 352 -421 147 -179 270 -327 273
-330 6 -6 -17 -38 405 565 577 826 1010 1419 1175 1611 l70 81 256 138 c141
75 259 141 262 146 3 5 -297 9 -705 9 l-711 0 0 -172 0 -173 -258 -282 c-141
-154 -258 -280 -260 -278 -4 4 49 151 207 573 67 177 121 325 121 327 0 3
-161 5 -358 5 l-359 0 -420 -402 c-455 -436 -481 -460 -468 -438 5 8 147 195
315 415 168 220 309 406 313 413 7 9 -129 12 -665 12 l-673 0 98 -98z"/>
<path d="M1116 2358 c-3 -24 -8 -128 -10 -233 -4 -158 -3 -174 4 -95 9 89 33
263 46 338 5 27 3 32 -14 32 -15 0 -21 -9 -26 -42z"/>
<path d="M1106 1655 c4 -200 21 -335 64 -502 127 -492 440 -792 879 -843 383
-45 887 158 1386 559 102 82 295 252 295 261 0 3 -27 38 -61 77 l-60 72 -137
-110 c-352 -284 -713 -477 -1031 -550 -126 -30 -389 -37 -502 -15 -165 33
-308 110 -439 233 -164 155 -270 346 -334 600 -23 93 -51 255 -60 353 -2 25
-2 -36 0 -135z"/>
</g>
</svg>
